<mxfile host="app.diagrams.net" modified="2024-01-01T15:46:32.520Z" agent="Mozilla/5.0 (X11; Linux x86_64; rv:121.0) Gecko/20100101 Firefox/121.0" etag="2VTUt1jTHy7tfxJb2JRX" version="22.1.16" type="github">
  <diagram name="Page-1" id="2YBvvXClWsGukQMizWep">
    <mxGraphModel dx="1367" dy="649" grid="1" gridSize="10" guides="1" tooltips="1" connect="1" arrows="1" fold="1" page="1" pageScale="1" pageWidth="850" pageHeight="1100" math="0" shadow="0">
      <root>
        <mxCell id="0" />
        <mxCell id="1" parent="0" />
        <mxCell id="YcWAjNrXuXhaVXsh1sb0-1" value="Cache" style="swimlane;whiteSpace=wrap;html=1;fillColor=#ffe6cc;strokeColor=#d79b00;sketch=1;curveFitting=1;jiggle=2;" parent="1" vertex="1">
          <mxGeometry x="290" y="340" width="260" height="270" as="geometry" />
        </mxCell>
        <mxCell id="aM9ryv3xv72pqoxQDRHE-3" value="getAll(1,2,3)" style="html=1;verticalAlign=bottom;startArrow=oval;endArrow=block;startSize=8;edgeStyle=elbowEdgeStyle;elbow=vertical;curved=0;rounded=0;strokeWidth=3;fontSize=24;fontStyle=0;sketch=1;curveFitting=1;jiggle=2;entryX=0;entryY=0.5;entryDx=0;entryDy=0;labelBackgroundColor=default;" parent="1" edge="1">
          <mxGeometry x="-0.1111" y="-15" relative="1" as="geometry">
            <mxPoint x="60" y="400" as="sourcePoint" />
            <mxPoint x="290" y="400" as="targetPoint" />
            <mxPoint as="offset" />
            <Array as="points" />
          </mxGeometry>
        </mxCell>
        <mxCell id="KGKpJTGk5lFJiOG2U9Ll-1" value="getAll(1,2)" style="html=1;verticalAlign=bottom;startArrow=oval;endArrow=block;startSize=8;edgeStyle=elbowEdgeStyle;elbow=vertical;curved=0;rounded=0;strokeWidth=3;fontSize=24;fontStyle=0;sketch=1;curveFitting=1;jiggle=2;entryX=0;entryY=0.5;entryDx=0;entryDy=0;labelBackgroundColor=default;" edge="1" parent="1">
          <mxGeometry x="-0.1111" y="-15" relative="1" as="geometry">
            <mxPoint x="60" y="440" as="sourcePoint" />
            <mxPoint x="290" y="440" as="targetPoint" />
            <mxPoint as="offset" />
            <Array as="points" />
          </mxGeometry>
        </mxCell>
        <mxCell id="KGKpJTGk5lFJiOG2U9Ll-2" value="get(1)" style="html=1;verticalAlign=bottom;startArrow=oval;endArrow=block;startSize=8;edgeStyle=elbowEdgeStyle;elbow=horizontal;curved=0;rounded=0;strokeWidth=3;fontSize=24;fontStyle=0;sketch=1;curveFitting=1;jiggle=2;entryX=0;entryY=0.5;entryDx=0;entryDy=0;labelBackgroundColor=default;" edge="1" parent="1">
          <mxGeometry x="-0.1111" y="-15" relative="1" as="geometry">
            <mxPoint x="60" y="480" as="sourcePoint" />
            <mxPoint x="290" y="480" as="targetPoint" />
            <mxPoint as="offset" />
            <Array as="points" />
          </mxGeometry>
        </mxCell>
        <mxCell id="KGKpJTGk5lFJiOG2U9Ll-3" value="getAll(1,4,6)" style="html=1;verticalAlign=bottom;startArrow=oval;endArrow=block;startSize=8;edgeStyle=elbowEdgeStyle;elbow=horizontal;curved=0;rounded=0;strokeWidth=3;fontSize=24;fontStyle=0;sketch=1;curveFitting=1;jiggle=2;entryX=0;entryY=0.5;entryDx=0;entryDy=0;labelBackgroundColor=default;" edge="1" parent="1">
          <mxGeometry x="-0.1111" y="-15" relative="1" as="geometry">
            <mxPoint x="60" y="520" as="sourcePoint" />
            <mxPoint x="290" y="520" as="targetPoint" />
            <mxPoint as="offset" />
            <Array as="points" />
          </mxGeometry>
        </mxCell>
        <mxCell id="KGKpJTGk5lFJiOG2U9Ll-4" value="get(5)" style="html=1;verticalAlign=bottom;startArrow=oval;endArrow=block;startSize=8;edgeStyle=elbowEdgeStyle;elbow=vertical;curved=0;rounded=0;strokeWidth=3;fontSize=24;fontStyle=0;sketch=1;curveFitting=1;jiggle=2;entryX=0;entryY=0.5;entryDx=0;entryDy=0;labelBackgroundColor=default;" edge="1" parent="1">
          <mxGeometry x="-0.1111" y="-15" relative="1" as="geometry">
            <mxPoint x="60" y="560" as="sourcePoint" />
            <mxPoint x="290" y="560" as="targetPoint" />
            <mxPoint as="offset" />
            <Array as="points" />
          </mxGeometry>
        </mxCell>
        <mxCell id="YcWAjNrXuXhaVXsh1sb0-4" value="EXTERNAL&lt;br&gt;LOOKUP" style="ellipse;shape=cloud;whiteSpace=wrap;html=1;fontSize=14;sketch=1;curveFitting=1;jiggle=2;" parent="1" vertex="1">
          <mxGeometry x="275" y="700" width="300" height="130" as="geometry" />
        </mxCell>
        <mxCell id="KGKpJTGk5lFJiOG2U9Ll-6" value="&lt;font color=&quot;#ed333b&quot;&gt;1&lt;/font&gt;,&lt;font color=&quot;#ed333b&quot;&gt;2&lt;/font&gt;,&lt;font color=&quot;#ed333b&quot;&gt;3&lt;/font&gt;" style="html=1;verticalAlign=bottom;startArrow=oval;endArrow=block;startSize=8;edgeStyle=elbowEdgeStyle;elbow=horizontal;curved=0;rounded=0;strokeWidth=3;fontSize=24;fontStyle=0;sketch=1;curveFitting=1;jiggle=2;entryX=0;entryY=0.5;entryDx=0;entryDy=0;labelBackgroundColor=default;" edge="1" parent="1">
          <mxGeometry x="-0.1111" y="-15" relative="1" as="geometry">
            <mxPoint x="550" y="400" as="sourcePoint" />
            <mxPoint x="705" y="400" as="targetPoint" />
            <mxPoint as="offset" />
            <Array as="points" />
          </mxGeometry>
        </mxCell>
        <mxCell id="KGKpJTGk5lFJiOG2U9Ll-7" value="&lt;font color=&quot;#26a269&quot;&gt;1&lt;/font&gt;,&lt;font color=&quot;#26a269&quot;&gt;2&lt;/font&gt;" style="html=1;verticalAlign=bottom;startArrow=oval;endArrow=block;startSize=8;edgeStyle=elbowEdgeStyle;elbow=vertical;curved=0;rounded=0;strokeWidth=3;fontSize=24;fontStyle=0;sketch=1;curveFitting=1;jiggle=2;entryX=0;entryY=0.5;entryDx=0;entryDy=0;labelBackgroundColor=default;" edge="1" parent="1">
          <mxGeometry x="-0.1111" y="-15" relative="1" as="geometry">
            <mxPoint x="550" y="440" as="sourcePoint" />
            <mxPoint x="705" y="440" as="targetPoint" />
            <mxPoint as="offset" />
            <Array as="points" />
          </mxGeometry>
        </mxCell>
        <mxCell id="KGKpJTGk5lFJiOG2U9Ll-8" value="&lt;font color=&quot;#26a269&quot;&gt;1&lt;/font&gt;" style="html=1;verticalAlign=bottom;startArrow=oval;endArrow=block;startSize=8;edgeStyle=elbowEdgeStyle;elbow=horizontal;curved=0;rounded=0;strokeWidth=3;fontSize=24;fontStyle=0;sketch=1;curveFitting=1;jiggle=2;entryX=0;entryY=0.5;entryDx=0;entryDy=0;labelBackgroundColor=default;" edge="1" parent="1">
          <mxGeometry x="-0.1097" y="-15" relative="1" as="geometry">
            <mxPoint x="550" y="480" as="sourcePoint" />
            <mxPoint x="705" y="480" as="targetPoint" />
            <mxPoint as="offset" />
            <Array as="points" />
          </mxGeometry>
        </mxCell>
        <mxCell id="KGKpJTGk5lFJiOG2U9Ll-9" value="&lt;font color=&quot;#26a269&quot;&gt;1&lt;/font&gt;,&lt;font color=&quot;#ed333b&quot;&gt;4&lt;/font&gt;,&lt;font color=&quot;#ed333b&quot;&gt;6&lt;/font&gt;" style="html=1;verticalAlign=bottom;startArrow=oval;endArrow=block;startSize=8;edgeStyle=elbowEdgeStyle;elbow=horizontal;curved=0;rounded=0;strokeWidth=3;fontSize=24;fontStyle=0;sketch=1;curveFitting=1;jiggle=2;entryX=0;entryY=0.5;entryDx=0;entryDy=0;labelBackgroundColor=default;" edge="1" parent="1">
          <mxGeometry x="-0.1097" y="-15" relative="1" as="geometry">
            <mxPoint x="550" y="520" as="sourcePoint" />
            <mxPoint x="705" y="520" as="targetPoint" />
            <mxPoint as="offset" />
            <Array as="points" />
          </mxGeometry>
        </mxCell>
        <mxCell id="KGKpJTGk5lFJiOG2U9Ll-10" value="&lt;font color=&quot;#ed333b&quot;&gt;5&lt;/font&gt;" style="html=1;verticalAlign=bottom;startArrow=oval;endArrow=block;startSize=8;edgeStyle=elbowEdgeStyle;elbow=vertical;curved=0;rounded=0;strokeWidth=3;fontSize=24;fontStyle=0;sketch=1;curveFitting=1;jiggle=2;entryX=0;entryY=0.5;entryDx=0;entryDy=0;labelBackgroundColor=default;" edge="1" parent="1">
          <mxGeometry x="-0.1111" y="-15" relative="1" as="geometry">
            <mxPoint x="550" y="560" as="sourcePoint" />
            <mxPoint x="705" y="560" as="targetPoint" />
            <mxPoint as="offset" />
            <Array as="points" />
          </mxGeometry>
        </mxCell>
        <mxCell id="KGKpJTGk5lFJiOG2U9Ll-14" value="&lt;font color=&quot;#ed333b&quot;&gt;1&lt;/font&gt;,&lt;font color=&quot;#ed333b&quot;&gt;2&lt;/font&gt;,&lt;font color=&quot;#ed333b&quot;&gt;3&lt;/font&gt;" style="html=1;verticalAlign=bottom;startArrow=oval;endArrow=block;startSize=8;edgeStyle=elbowEdgeStyle;elbow=horizontal;curved=0;rounded=0;strokeWidth=3;fontSize=24;fontStyle=0;sketch=1;curveFitting=1;jiggle=2;labelBackgroundColor=default;exitX=0.25;exitY=1;exitDx=0;exitDy=0;entryX=0.267;entryY=0.169;entryDx=0;entryDy=0;entryPerimeter=0;" edge="1" parent="1" source="YcWAjNrXuXhaVXsh1sb0-1" target="YcWAjNrXuXhaVXsh1sb0-4">
          <mxGeometry x="0.2492" relative="1" as="geometry">
            <mxPoint x="590" y="720" as="sourcePoint" />
            <mxPoint x="355" y="720" as="targetPoint" />
            <mxPoint as="offset" />
            <Array as="points" />
          </mxGeometry>
        </mxCell>
        <mxCell id="KGKpJTGk5lFJiOG2U9Ll-15" value="&lt;font color=&quot;#ed333b&quot;&gt;4&lt;/font&gt;,&lt;font color=&quot;#ed333b&quot;&gt;6&lt;/font&gt;" style="html=1;verticalAlign=bottom;startArrow=oval;endArrow=block;startSize=8;edgeStyle=elbowEdgeStyle;elbow=horizontal;curved=0;rounded=0;strokeWidth=3;fontSize=24;fontStyle=0;sketch=1;curveFitting=1;jiggle=2;labelBackgroundColor=default;exitX=0.25;exitY=1;exitDx=0;exitDy=0;" edge="1" parent="1">
          <mxGeometry x="0.2727" relative="1" as="geometry">
            <mxPoint x="425" y="610" as="sourcePoint" />
            <mxPoint x="425" y="720" as="targetPoint" />
            <mxPoint as="offset" />
            <Array as="points">
              <mxPoint x="425" y="670" />
            </Array>
          </mxGeometry>
        </mxCell>
        <mxCell id="KGKpJTGk5lFJiOG2U9Ll-16" value="&lt;font color=&quot;#ed333b&quot;&gt;5&lt;/font&gt;" style="html=1;verticalAlign=bottom;startArrow=oval;endArrow=block;startSize=8;edgeStyle=elbowEdgeStyle;elbow=horizontal;curved=0;rounded=0;strokeWidth=3;fontSize=24;fontStyle=0;sketch=1;curveFitting=1;jiggle=2;labelBackgroundColor=default;exitX=0.25;exitY=1;exitDx=0;exitDy=0;" edge="1" parent="1">
          <mxGeometry x="0.2727" relative="1" as="geometry">
            <mxPoint x="490" y="610" as="sourcePoint" />
            <mxPoint x="490" y="720" as="targetPoint" />
            <mxPoint as="offset" />
            <Array as="points">
              <mxPoint x="490" y="670" />
            </Array>
          </mxGeometry>
        </mxCell>
      </root>
    </mxGraphModel>
  </diagram>
</mxfile>
